<svg width="154" height="43" viewBox="0 0 154 43" fill="none" xmlns="http://www.w3.org/2000/svg">
<g clip-path="url(#clip0_0_1)">
<path d="M118.344 17.6319H118.851C119.298 17.6319 119.442 17.3759 119.442 16.3184V5.55449C119.442 4.48589 119.29 4.22987 118.851 4.22987H118.344V3.65105H121.578V16.3073C121.578 17.3759 121.731 17.6208 122.17 17.6208H122.676V18.1885H118.344V17.6319ZM40.4361 17.6319H40.8415C41.5509 17.6319 41.5678 17.1087 41.5678 14.6042V7.90318C41.5678 5.40978 41.5509 4.88661 40.8246 4.88661H40.4361V4.30779H44.9965V4.87548H44.6081C43.8818 4.87548 43.8733 5.39865 43.8733 7.89205V10.6749H47.5977V7.90318C47.5977 5.40978 47.5808 4.88661 46.8545 4.88661H46.466V4.30779H51.0265V4.87548H50.638C49.9117 4.87548 49.8948 5.39865 49.8948 7.89205V14.5931C49.8948 17.0865 49.9117 17.6208 50.6211 17.6208H51.0265V18.1885H46.466V17.6208H46.8545C47.5808 17.6208 47.5977 17.0976 47.5977 14.5931V11.3539H43.8733V14.5931C43.8733 17.0865 43.8902 17.6208 44.6081 17.6208H44.9965V18.1885H40.4361V17.6319ZM54.3117 13.3018C54.3117 9.41703 54.962 8.77142 55.7474 8.77142C56.5328 8.77142 57.1831 9.41703 57.1831 13.3018C57.1831 16.6969 56.7946 17.8545 55.7474 17.8545C54.7002 17.8545 54.3117 16.6857 54.3117 13.3018ZM52.0906 13.3018C52.0906 16.3629 53.3912 18.5224 55.7474 18.5224C58.1036 18.5224 59.4042 16.3629 59.4042 13.3018C59.4042 10.2741 58.1036 8.10354 55.7474 8.10354C53.3996 8.09241 52.0906 10.263 52.0906 13.3018ZM63.0526 11.5431C63.0526 10.4411 63.0948 8.77142 64.2349 8.77142C65.3244 8.77142 65.3244 10.6749 65.3244 11.6544C65.3244 12.6228 65.2061 14.0699 64.2265 14.0699C63.0948 14.081 63.0526 12.6562 63.0526 11.5431ZM63.6269 16.1403C62.8752 16.1403 62.5459 15.9956 62.5459 15.5281C62.5459 15.1051 62.7486 14.7489 63.2384 14.7489C65.1639 14.7489 67.461 14.7489 67.461 11.3539C67.461 10.3521 67.1148 9.65079 66.4223 8.86047C66.6756 8.73803 66.853 8.66011 67.081 8.66011C67.4526 8.66011 67.1992 9.69531 68.086 9.69531C68.5927 9.69531 68.8376 9.17214 68.8376 8.58219C68.8376 7.94771 68.5674 7.35775 68.0353 7.35775C67.3259 7.34662 66.7347 8.32617 65.9324 8.32617C65.5946 8.32617 64.9528 8.09241 64.1505 8.09241C62.529 8.09241 60.9159 9.06083 60.9159 11.4986C60.9159 12.9345 61.6 14.0365 62.5965 14.415V14.4484V14.4261C61.8787 14.7155 61.4395 15.517 61.4395 16.5076C61.4395 17.2312 61.7098 17.8879 62.3263 18.1773V18.2218C61.5662 18.322 60.595 19.0233 60.595 20.2143C60.595 22.3515 62.6894 22.73 63.9225 22.73C65.696 22.73 68.0522 21.8395 68.0522 19.001C68.0522 16.541 66.4898 16.118 65.375 16.118H63.6269V16.1403ZM64.3785 18.4667C65.2568 18.4667 66.6925 18.5113 66.6925 20.0808C66.6925 21.5835 65.2568 22.0733 64.3109 22.0733C63.3904 22.0733 61.9547 21.795 61.9547 20.2477C61.9547 18.5113 63.3904 18.4667 64.3785 18.4667ZM71.6921 12.7675C71.6921 10.8418 71.7512 8.77142 72.9758 8.77142C74.0737 8.77142 74.0737 10.6526 74.0737 12.7675H71.6921ZM76.3877 13.3352C76.3877 10.2964 75.5178 8.09241 73.0434 8.09241C70.6871 8.09241 69.3866 10.263 69.3866 13.3018C69.3866 16.3518 70.6871 18.5113 73.0434 18.5113C74.9013 18.5113 76.0583 17.2646 76.2441 14.8491L75.5854 14.8379C75.5516 16.3852 74.8 17.8434 73.5079 17.8434C71.8188 17.8434 71.6921 15.7841 71.6921 13.8139V13.3241H76.3877V13.3352ZM77.6123 15.0049H78.0852C78.3808 16.6746 79.0818 17.8545 80.4752 17.8545C81.2269 17.8545 81.9532 17.2646 81.9532 16.2516C81.9532 15.0049 81.21 14.7266 79.7912 14.2925C78.6933 13.9586 77.6123 13.4688 77.6123 11.454C77.6123 9.11649 78.9044 8.09241 80.5344 8.10354C81.2015 8.10354 81.6745 8.41522 82.1643 8.41522C82.5612 8.41522 82.7892 8.25938 82.9666 8.09241H83.0595V11.2314H82.5866C82.4345 9.9402 81.6407 8.77142 80.6019 8.77142C79.8756 8.77142 79.1324 9.12762 79.1324 10.3298C79.1324 11.3205 79.5209 11.4652 81.2353 11.9995C82.5528 12.3891 83.5578 12.9345 83.5578 15.2053C83.5578 17.5651 82.0967 18.5224 80.5428 18.5113C79.8503 18.5113 79.0902 18.1996 78.4568 18.1996C78.1612 18.1996 77.8572 18.3888 77.7136 18.5224H77.6123V15.0049ZM91.2937 14.9381C91.0825 17.3536 90.0606 18.5113 88.228 18.5113C85.8296 18.5113 84.7317 16.1403 84.7317 13.2017C84.7317 9.51721 86.7332 8.09241 88.5067 8.09241C90.5505 8.09241 91.1585 9.55061 91.1585 10.2407C91.1585 11.1758 90.7869 11.8214 90.01 11.8214C89.4019 11.8214 89.0219 11.2537 89.0219 10.4745C89.0219 9.90681 89.233 9.80663 89.233 9.57287C89.233 9.13875 88.7263 8.77142 88.3885 8.77142C87.1132 8.77142 87.0372 11.1424 87.0372 13.4354C87.0372 14.9827 87.0203 17.8545 88.6672 17.8545C90.0184 17.8545 90.5336 16.5299 90.6349 14.927L91.2937 14.9381ZM92.1129 17.6319H92.6196C93.0672 17.6319 93.2107 17.3759 93.2107 16.3073V5.54336C93.2107 4.47476 93.0672 4.21874 92.6196 4.21874H92.1129V3.65105H95.3474V9.72871H95.3812C95.8119 8.77142 96.5973 8.09241 97.6867 8.09241C99.1393 8.09241 99.8488 9.23893 99.8488 10.8641V16.3073C99.8488 17.3759 100.001 17.6319 100.44 17.6319H100.769V18.1996H96.8V17.6319H97.1209C97.5601 17.6319 97.7121 17.3759 97.7121 16.3073V11.3761C97.7121 10.4188 97.7121 9.30572 96.7662 9.30572C95.3474 9.30572 95.3474 11.454 95.3474 12.6674V16.3073C95.3474 17.3759 95.4994 17.6319 95.9386 17.6319H96.2595V18.1996H92.1129V17.6319ZM103.97 13.3018C103.97 9.41703 104.62 8.77142 105.406 8.77142C106.191 8.77142 106.841 9.41703 106.841 13.3018C106.841 16.6969 106.461 17.8545 105.406 17.8545C104.359 17.8545 103.97 16.6857 103.97 13.3018ZM101.749 13.3018C101.749 16.3629 103.05 18.5224 105.406 18.5224C107.762 18.5224 109.063 16.3629 109.063 13.3018C109.063 10.2741 107.762 8.10354 105.406 8.10354C103.058 8.09241 101.749 10.263 101.749 13.3018ZM112.474 13.3018C112.474 9.41703 113.125 8.77142 113.91 8.77142C114.696 8.77142 115.346 9.41703 115.346 13.3018C115.346 16.6969 114.957 17.8545 113.91 17.8545C112.863 17.8545 112.474 16.6857 112.474 13.3018ZM110.253 13.3018C110.253 16.3629 111.554 18.5224 113.91 18.5224C116.266 18.5224 117.567 16.3629 117.567 13.3018C117.567 10.2741 116.266 8.10354 113.91 8.10354C111.554 8.09241 110.253 10.263 110.253 13.3018ZM48.1466 29.8095C47.5977 29.8095 47.4372 30.4106 47.2008 31.1564L45.3935 36.9223C45.1739 37.6347 44.9628 38.3917 44.7854 39.1486H43.7973C43.6622 38.6477 43.5271 38.1022 43.3835 37.6013L41.4157 31.1007C41.1624 30.2547 41.1201 29.8095 40.6894 29.8095H40.4361V29.2418H44.4898V29.8095H43.9831C43.7297 29.8095 43.4764 29.8874 43.4764 30.2436C43.4764 30.3438 43.5271 30.5775 43.6115 30.9115L45.0641 35.8983H45.0979L46.5674 31.0116C46.6434 30.7334 46.6856 30.5219 46.6856 30.3438C46.6856 30.0098 46.4322 29.8206 46.1704 29.8206H45.8157V29.2529H48.1551V29.8095H48.1466ZM53.2476 36.3658C53.2476 38.0466 52.4791 38.3805 52.0906 38.3805C51.3305 38.3805 51.0687 37.4789 51.0687 36.5995C51.0687 34.8631 51.6008 33.8056 52.8 33.8056C52.9351 33.8056 53.0534 33.8279 53.2392 33.8835V36.3658H53.2476ZM56.2288 36.3324C56.2288 37.2229 56.2288 38.2581 55.7558 38.2581C55.5194 38.2581 55.3843 38.0466 55.3843 37.5234V31.6907C55.3843 29.4087 53.7628 28.9301 52.3524 28.9301C51.3052 28.9301 49.3712 29.342 49.3712 31.1786C49.3712 32.058 49.8104 32.6368 50.4775 32.6368C51.0518 32.6368 51.5923 32.147 51.5923 31.3233C51.5923 30.7668 51.263 30.4217 51.263 30.1991C51.263 29.687 51.9386 29.6091 52.2679 29.6091C53.0449 29.6091 53.256 30.3326 53.256 31.2009V33.2602C53.0365 33.2379 52.8253 33.2379 52.6058 33.2379C50.9927 33.2379 48.8645 34.095 48.8645 36.6107C48.8645 38.4028 49.9117 39.3378 51.1869 39.3378C51.9977 39.3378 52.9182 39.0039 53.3489 38.0355C53.6023 38.9371 54.3708 39.3378 54.9704 39.3378C56.7946 39.3378 56.8115 37.6236 56.8115 36.3213H56.2288V36.3324ZM57.3182 38.4584H57.8165C58.2641 38.4584 58.4077 38.2024 58.4077 37.1338V31.1452C58.4077 30.0655 58.2641 29.8206 57.8165 29.8206H57.3182V29.2529H58.8722C59.4211 29.2529 59.9532 29.1193 60.4599 28.9301V30.6554H60.4852C61.0764 29.5535 61.7858 28.9301 62.8837 28.9301C64.3363 28.9301 65.0541 30.0766 65.0541 31.7018V37.145C65.0541 38.2136 65.2061 38.4696 65.6453 38.4696H65.9747V39.0373H62.0054V38.4696H62.3347C62.7739 38.4696 62.9259 38.2136 62.9259 37.145V32.2138C62.9259 31.2565 62.9259 30.1434 61.98 30.1434C60.5612 30.1434 60.5612 32.2917 60.5612 33.5162V37.145C60.5612 38.2136 60.7132 38.4696 61.1524 38.4696H61.4733V39.0373H57.3267V38.4584H57.3182ZM76.1935 33.8612H72.7985L74.5635 28.2845L76.1935 33.8612ZM76.1681 39.0261H80.9059V38.4584H80.5935C80.0192 38.4584 79.7827 37.6793 79.5969 37.0559L76.8606 27.7168C76.5904 26.8263 76.3708 25.9247 76.1766 24.9562H74.8591C74.6818 25.7911 74.4537 26.5369 74.2257 27.2715L71.3374 36.4103C70.8476 37.9575 70.5689 38.4584 69.8173 38.4584V39.0261H73.018V38.4584H72.6127C72.1059 38.4362 71.8104 38.169 71.8104 37.6347C71.8104 37.1561 71.9877 36.4437 72.1988 35.7758L72.5958 34.518H76.3877L76.7762 35.8315C77.0464 36.7331 77.2829 37.5012 77.2829 37.8574C77.2829 38.4251 76.8353 38.4251 76.1681 38.4362V39.0261ZM81.058 38.4584H81.5647C82.0123 38.4584 82.1558 38.2024 82.1558 37.1338V31.1452C82.1558 30.0655 82.0038 29.8206 81.5647 29.8206H81.058V29.2529H82.6119C83.1608 29.2529 83.6929 29.1193 84.1996 28.9301V30.6554H84.2249C84.8161 29.5535 85.5255 28.9301 86.6234 28.9301C87.6284 28.9301 88.3716 29.4199 88.6587 30.6554C89.2921 29.4533 89.9002 28.9301 91.1332 28.9301C92.5858 28.9301 93.2952 30.0766 93.2952 31.7018V37.145C93.2952 38.2136 93.4472 38.4696 93.8864 38.4696H94.2157V39.0373H90.2464V38.4696H90.5674C91.015 38.4696 91.1585 38.2136 91.1585 37.145V32.2138C91.1585 31.2565 91.1585 30.1434 90.2127 30.1434C88.7939 30.1434 88.7939 32.2917 88.7939 33.505V37.145C88.7939 38.2136 88.9459 38.4696 89.385 38.4696H89.7144V39.0373H85.7451V38.4696H86.0745C86.5221 38.4696 86.6656 38.2136 86.6656 37.145V32.2138C86.6656 31.2565 86.6656 30.1434 85.7198 30.1434C84.301 30.1434 84.301 32.2917 84.301 33.5162V37.145C84.301 38.2136 84.453 38.4696 84.8921 38.4696H85.213V39.0373H81.0664V38.4584H81.058ZM95.0856 35.8315H95.5585C95.8541 37.5012 96.5551 38.6811 97.9486 38.6811C98.7002 38.6811 99.4265 38.0911 99.4265 37.0782C99.4265 35.8315 98.6833 35.5532 97.2645 35.1191C96.1666 34.7851 95.0856 34.2954 95.0856 32.2806C95.0856 29.943 96.3777 28.919 98.0077 28.9301C98.6748 28.9301 99.1478 29.2418 99.6376 29.2418C100.043 29.2418 100.263 29.0859 100.44 28.919H100.524V32.058H100.051C99.9079 30.7668 99.1056 29.598 98.0668 29.598C97.3405 29.598 96.6058 29.9542 96.6058 31.1564C96.6058 32.147 96.9858 32.2917 98.7086 32.826C100.026 33.2156 101.031 33.7611 101.031 36.0318C101.031 38.3917 99.57 39.3489 98.0161 39.3378C97.3236 39.3378 96.5635 39.0261 95.9301 39.0261C95.6345 39.0261 95.339 39.2154 95.1869 39.3489H95.094V35.8315H95.0856ZM106.673 29.8095H105.127V36.1098C105.127 37.2785 105.127 38.1468 105.811 38.1468C106.369 38.1468 106.461 37.4232 106.478 36.7442V36.1209H107.036V36.5439C107.036 38.4918 106.453 39.3489 105.11 39.3489C103.582 39.3489 102.999 38.1134 102.999 36.7999V29.8206H101.96V29.2529C103.43 29.1305 104.367 27.2604 104.688 25.5017H105.136V29.2529H106.681V29.8095H106.673ZM110.279 33.6052C110.279 31.6795 110.338 29.6091 111.562 29.6091C112.66 29.6091 112.66 31.4903 112.66 33.6052H110.279ZM114.974 34.1729C114.974 31.1341 114.096 28.9301 111.621 28.9301C109.265 28.9301 107.965 31.1007 107.965 34.1395C107.965 37.1895 109.274 39.3489 111.621 39.3489C113.479 39.3489 114.636 38.1023 114.831 35.6868L114.172 35.6756C114.138 37.2229 113.387 38.6811 112.094 38.6811C110.405 38.6811 110.279 36.6218 110.279 34.6516V34.1729H114.974ZM119.121 37.1338C119.121 38.2024 119.264 38.4584 119.712 38.4584H120.396V39.0261H115.886V38.4584H116.393C116.841 38.4584 116.984 38.2024 116.984 37.1338V31.1452C116.984 30.0655 116.841 29.8206 116.393 29.8206H115.886V29.2529H117.44C117.989 29.2529 118.521 29.1193 119.028 28.9301V31.1452H119.087C119.408 30.1434 120.084 29.0748 121.072 29.0748C121.764 29.0748 122.55 29.4644 122.55 30.7222C122.55 31.635 122.094 32.1248 121.308 32.1248C120.954 32.1248 120.329 31.891 120.329 30.8669C120.329 30.4996 120.329 30.3994 120.151 30.3994C119.737 30.3994 119.112 31.6684 119.112 33.7611V37.1338H119.121ZM125.641 33.8612C125.641 32.9151 125.641 29.8985 126.764 29.8985C128.166 29.8985 128.284 32.6034 128.284 33.9392C128.284 35.2304 128.267 38.3917 126.781 38.3917C125.641 38.3805 125.641 34.8185 125.641 33.8612ZM128.411 39.0261H131.527V38.4584H131.054C130.666 38.4584 130.463 38.2915 130.463 37.1116V24.4887H127.279V25.0564H127.735C128.293 25.0564 128.326 25.4015 128.326 26.3588V30.5219H128.301C127.845 29.431 127.152 28.919 126.207 28.919C124.045 28.919 123.335 31.6461 123.335 34.1507C123.335 36.5327 124.104 39.3378 126.181 39.3378C127.212 39.3378 128.056 38.8592 128.394 37.6125H128.419V39.0261H128.411ZM136.763 36.3658C136.763 38.0466 135.995 38.3805 135.615 38.3805C134.863 38.3805 134.593 37.4789 134.593 36.5995C134.593 34.8631 135.125 33.8056 136.324 33.8056C136.459 33.8056 136.577 33.8279 136.763 33.8835V36.3658ZM139.744 36.3324C139.744 37.2229 139.744 38.2581 139.271 38.2581C139.035 38.2581 138.9 38.0466 138.9 37.5234V31.6907C138.9 29.4087 137.278 28.9301 135.859 28.9301C134.812 28.9301 132.878 29.342 132.878 31.1786C132.878 32.058 133.326 32.6368 133.993 32.6368C134.567 32.6368 135.099 32.147 135.099 31.3233C135.099 30.7668 134.77 30.4217 134.77 30.1991C134.77 29.687 135.446 29.6091 135.775 29.6091C136.56 29.6091 136.763 30.3326 136.763 31.2009V33.2602C136.544 33.2379 136.341 33.2379 136.113 33.2379C134.5 33.2379 132.363 34.095 132.363 36.6107C132.363 38.4028 133.419 39.3378 134.686 39.3378C135.505 39.3378 136.417 39.0039 136.848 38.0355C137.101 38.9371 137.869 39.3378 138.461 39.3378C140.285 39.3378 140.293 37.6236 140.293 36.3213H139.744V36.3324ZM140.842 38.4584H141.34C141.788 38.4584 141.932 38.2024 141.932 37.1338V31.1452C141.932 30.0655 141.788 29.8206 141.34 29.8206H140.842V29.2529H142.396C142.945 29.2529 143.477 29.1193 143.984 28.9301V30.6554H144.018C144.609 29.5535 145.318 28.9301 146.408 28.9301C147.421 28.9301 148.164 29.4199 148.443 30.6554C149.076 29.4533 149.684 28.9301 150.917 28.9301C152.37 28.9301 153.088 30.0766 153.088 31.7018V37.145C153.088 38.2136 153.24 38.4696 153.679 38.4696H154.008V39.0373H150.031V38.4696H150.36C150.808 38.4696 150.951 38.2136 150.951 37.145V32.2138C150.951 31.2565 150.951 30.1434 150.005 30.1434C148.587 30.1434 148.587 32.2917 148.587 33.505V37.145C148.587 38.2136 148.739 38.4696 149.178 38.4696H149.499V39.0373H145.529V38.4696H145.85C146.298 38.4696 146.441 38.2136 146.441 37.145V32.2138C146.441 31.2565 146.441 30.1434 145.496 30.1434C144.077 30.1434 144.077 32.2917 144.077 33.5162V37.145C144.077 38.2136 144.22 38.4696 144.668 38.4696H144.989V39.0373H140.842V38.4584Z" fill="#110101"/>
<path d="M17.4818 10.263C21.8827 10.2528 26.206 11.7898 30.0061 14.7155L33.9332 5.86617C29.1025 2.12607 23.4864 0 17.4818 0C11.4856 0 5.86948 2.12607 1.03877 5.86617L4.96584 14.7155C8.64799 11.877 12.9213 10.263 17.4818 10.263V10.263Z" fill="#141212"/>
<path d="M21.1132 15.1274C19.517 15.1051 14.6779 14.9827 8.46214 18.7673C7.66828 19.257 7.11089 19.6578 6.97576 19.4018C6.70551 18.8452 8.68171 16.6301 10.8099 15.0049C11.5785 14.4038 12.0176 13.8807 11.8403 13.4354C11.5869 12.7787 10.0667 12.6451 5.8272 15.5058C3.65676 17.1087 1.68901 19.1457 0.00839233 21.5278L0.700907 22.3849C1.38498 21.4276 2.11972 20.5483 2.8629 19.6912C3.36118 19.1235 5.68363 16.8304 5.88632 17.5206C5.96233 17.7989 5.81876 18.1996 4.99112 19.68C4.27327 20.9824 3.80033 22.2068 4.14659 22.5853C4.4844 22.9638 4.88977 22.7523 5.86098 22.051C6.57883 21.5278 8.85062 19.9361 12.4399 18.5224C16.0291 17.1087 16.899 17.6541 16.9834 17.9881C17.0932 18.4556 15.438 19.2237 14.4667 19.8581C13.6475 20.4036 10.7761 22.6298 9.21377 24.2884C9.21377 24.2884 10.7255 27.7057 10.7339 27.7057C12.347 26.459 18.4783 24.4108 19.137 25.8913C19.8548 27.5164 13.3266 33.5607 13.3266 33.5607L17.4902 42.9889C17.4902 42.9889 26.9573 28.6518 25.4456 25.5128C23.9255 22.3849 18.2249 22.9638 15.9785 23.242C15.3619 23.3088 14.6356 23.4869 14.4836 23.0862C14.3147 22.6409 14.509 20.8488 22.1097 18.4779C23.7988 17.9547 24.4575 17.6764 24.3646 16.6969C24.2717 15.8732 22.7094 15.1385 21.1132 15.1274V15.1274Z" fill="#141212"/>
</g>
<defs>
<clipPath id="clip0_0_1">
<rect width="154" height="43" fill="white"/>
</clipPath>
</defs>
</svg>
